<svg width="38" height="38" viewBox="0 0 38 38" fill="none" xmlns="http://www.w3.org/2000/svg">
<path d="M25.9268 5.14559C27.7625 5.15107 29.5213 5.8827 30.8193 7.18068C32.1173 8.47867 32.8489 10.2375 32.8544 12.0732V25.9268C32.8489 27.7625 32.1173 29.5213 30.8193 30.8193C29.5213 32.1173 27.7625 32.8489 25.9268 32.8544H12.0732C10.2375 32.8489 8.47867 32.1173 7.18068 30.8193C5.8827 29.5213 5.15107 27.7625 5.14559 25.9268V12.0732C5.15107 10.2375 5.8827 8.47867 7.18068 7.18068C8.47867 5.8827 10.2375 5.15107 12.0732 5.14559H25.9268ZM25.9268 2.375H12.0732C6.73906 2.375 2.375 6.73906 2.375 12.0732V25.9268C2.375 31.2609 6.73906 35.625 12.0732 35.625H25.9268C31.2609 35.625 35.625 31.2609 35.625 25.9268V12.0732C35.625 6.73906 31.2609 2.375 25.9268 2.375Z" fill="#1F3D27"/>
<path d="M28.005 12.0732C27.594 12.0732 27.1922 11.9513 26.8505 11.7229C26.5087 11.4946 26.2424 11.17 26.0851 10.7903C25.9278 10.4106 25.8866 9.99274 25.9668 9.58962C26.047 9.1865 26.2449 8.81622 26.5355 8.52559C26.8262 8.23495 27.1965 8.03703 27.5996 7.95685C28.0027 7.87666 28.4205 7.91782 28.8003 8.0751C29.18 8.23239 29.5046 8.49875 29.7329 8.8405C29.9613 9.18224 30.0831 9.58403 30.0831 9.99504C30.0837 10.2681 30.0304 10.5386 29.9261 10.791C29.8219 11.0434 29.6689 11.2727 29.4758 11.4658C29.2827 11.6589 29.0534 11.8119 28.801 11.9162C28.5486 12.0204 28.2781 12.0738 28.005 12.0732Z" fill="#1F3D27"/>
<path d="M19 12.9581L18.9995 12.9581C17.3977 12.9598 15.8621 13.5969 14.7295 14.7295C13.5969 15.8621 12.9598 17.3977 12.9581 18.9995V19C12.9581 20.195 13.3124 21.3631 13.9763 22.3567C14.6402 23.3503 15.5838 24.1247 16.6879 24.582C17.7919 25.0393 19.0067 25.1589 20.1787 24.9258C21.3507 24.6927 22.4273 24.1173 23.2723 23.2723C24.1173 22.4273 24.6927 21.3507 24.9258 20.1787C25.159 19.0067 25.0393 17.7919 24.582 16.6879C24.1247 15.5838 23.3503 14.6402 22.3567 13.9763C21.3631 13.3124 20.195 12.9581 19 12.9581ZM14.6596 12.5041C15.9444 11.6457 17.4548 11.1875 19 11.1875C21.072 11.1875 23.0591 12.0106 24.5243 13.4757C25.9894 14.9409 26.8125 16.928 26.8125 19C26.8125 20.5452 26.3543 22.0556 25.4959 23.3404C24.6374 24.6252 23.4173 25.6265 21.9897 26.2178C20.5622 26.8091 18.9913 26.9638 17.4759 26.6624C15.9604 26.3609 14.5683 25.6169 13.4757 24.5243C12.3831 23.4317 11.6391 22.0396 11.3376 20.5241C11.0362 19.0087 11.1909 17.4378 11.7822 16.0103C12.3735 14.5827 13.3749 13.3626 14.6596 12.5041Z" fill="#1F3D27" stroke="#1F3D27"/>
</svg>
