<svg width="100" height="100" viewBox="0 0 100 100" fill="none" xmlns="http://www.w3.org/2000/svg">
<path d="M28.6966 30.3838C28.7285 30.001 28.8242 29.6501 28.9837 29.3311C29.1432 29.012 29.3346 28.7728 29.5579 28.6133C29.8131 28.4219 30.0683 28.3421 30.3235 28.374C30.5787 28.374 30.834 28.5176 31.0892 28.8047C31.2168 28.8047 31.3125 28.9323 31.3763 29.1875C31.472 29.4108 31.5358 29.8415 31.5677 30.4795C31.5996 31.0856 31.6155 31.931 31.6155 33.0156C31.6474 34.1003 31.6634 35.488 31.6634 37.1787C31.6634 38.8695 31.6634 40.9111 31.6634 43.3037C31.6953 45.6644 31.7272 48.4398 31.7591 51.6299C31.8867 51.4066 32.2216 50.8483 32.764 49.9551C33.3382 49.0299 34.056 47.9134 34.9173 46.6055C35.7786 45.2656 36.7356 43.8301 37.7884 42.2988C38.873 40.7357 39.9736 39.1885 41.0901 37.6572C42.2386 36.126 43.3711 34.6904 44.4876 33.3506C45.636 32.0107 46.6888 30.9261 47.6458 30.0967C48.6028 29.2354 49.4482 28.693 50.1819 28.4697C50.9476 28.2145 51.5058 28.4219 51.8567 29.0918C49.0813 32.6647 46.625 35.7751 44.4876 38.4229C42.3502 41.0706 40.5 43.4632 38.9368 45.6006C37.4056 47.7061 36.1136 49.652 35.0608 51.4385C34.04 53.2249 33.2265 55.0433 32.6204 56.8936L52.6702 66.5596C52.6064 67.1019 52.415 67.6123 52.096 68.0908C51.8089 68.5693 51.3144 68.7767 50.6126 68.7129L31.9983 60.0518C32.094 60.5622 32.1259 61.1842 32.094 61.918C32.094 62.6198 32.0621 63.3535 31.9983 64.1191C31.9664 64.8848 31.9026 65.6185 31.8069 66.3203C31.7112 67.0221 31.6474 67.5964 31.6155 68.043C31.6793 68.7129 31.4401 69.1595 30.8978 69.3828C30.3873 69.6061 29.8769 69.4945 29.3665 69.0479L28.6966 30.3838ZM71.6237 46.7012C71.3685 46.8607 70.906 47.084 70.236 47.3711C69.5661 47.6263 68.7845 47.9134 67.8913 48.2324C67.03 48.5514 66.1049 48.8864 65.1159 49.2373C64.1589 49.5882 63.2338 49.9391 62.3405 50.29C61.4792 50.609 60.6976 50.9121 59.9958 51.1992C59.3259 51.4544 58.8633 51.6777 58.6081 51.8691C58.0339 52.2839 57.6032 52.874 57.3161 53.6396C57.029 54.3734 56.8217 55.2188 56.694 56.1758C56.5664 57.1009 56.5026 58.1058 56.5026 59.1904C56.5026 60.2432 56.5345 61.2799 56.5983 62.3008C56.6621 63.3216 56.7259 64.2946 56.7897 65.2197C56.8855 66.1449 56.9493 66.9264 56.9812 67.5645C56.9493 68.0749 56.7578 68.5374 56.4069 68.9521C56.0879 69.335 55.6732 69.5264 55.1628 69.5264C54.9714 69.5264 54.7481 69.4785 54.4929 69.3828C54.2377 69.2871 54.126 69.1117 54.1579 68.8564L54.0144 29.7617C54.0144 29.3151 54.1101 28.9961 54.3015 28.8047C54.4929 28.5814 54.7321 28.4697 55.0192 28.4697C55.3064 28.4378 55.6094 28.4857 55.9284 28.6133C56.2474 28.7409 56.5345 28.9004 56.7897 29.0918C56.8217 30.4954 56.8376 32.1064 56.8376 33.9248C56.8376 35.7432 56.8376 37.5775 56.8376 39.4277C56.8695 41.278 56.9174 43.0645 56.9812 44.7871C57.0769 46.5098 57.2364 47.9772 57.4597 49.1895C59.0228 48.5195 60.6179 47.9613 62.2448 47.5146C63.8718 47.0361 65.3392 46.4938 66.6472 45.8877C67.987 45.2497 69.0876 44.4521 69.9489 43.4951C70.8103 42.5062 71.2888 41.1823 71.3845 39.5234C71.4483 38.6621 71.4802 37.8965 71.4802 37.2266C71.4802 36.5566 71.4483 35.8867 71.3845 35.2168C71.3526 34.5469 71.2569 33.8451 71.0974 33.1113C70.9698 32.3457 70.7943 31.4525 70.571 30.4316C70.571 29.7936 70.6986 29.3949 70.9538 29.2354C71.2409 29.0439 71.5918 28.9482 72.0065 28.9482C72.4532 28.9482 72.7881 29.0599 73.0114 29.2832C73.2666 29.5065 73.4421 29.7936 73.5378 30.1445C73.6654 30.4635 73.7452 30.8304 73.7771 31.2451C73.809 31.6598 73.8249 32.0426 73.8249 32.3936C73.8568 32.9359 73.8887 33.7812 73.9206 34.9297C73.9525 36.0781 73.9844 37.3701 74.0163 38.8057C74.0482 40.2093 74.0801 41.7087 74.112 43.3037C74.1758 44.8988 74.2237 46.4141 74.2556 47.8496C74.2875 49.2533 74.3194 50.5293 74.3513 51.6777C74.3832 52.8262 74.3991 53.6715 74.3991 54.2139C74.431 54.8838 74.447 55.777 74.447 56.8936C74.447 58.0101 74.447 59.1745 74.447 60.3867C74.447 61.599 74.431 62.7793 74.3991 63.9277C74.3672 65.0443 74.3353 65.9375 74.3034 66.6074C74.2715 66.8945 74.2396 67.1816 74.2077 67.4688C74.2077 67.7559 74.1599 68.027 74.0642 68.2822C74.0004 68.5374 73.8568 68.7607 73.6335 68.9521C73.4421 69.1436 73.139 69.2871 72.7243 69.3828C72.0863 68.9681 71.7354 68.4736 71.6716 67.8994C71.6397 67.3252 71.6078 66.7031 71.5759 66.0332C71.5759 65.6504 71.5759 64.9645 71.5759 63.9756C71.6078 62.9548 71.6237 61.7904 71.6237 60.4824C71.6237 59.1745 71.6237 57.8027 71.6237 56.3672C71.6556 54.8997 71.6716 53.528 71.6716 52.252C71.6716 50.944 71.6716 49.7956 71.6716 48.8066C71.6716 47.7858 71.6556 47.084 71.6237 46.7012Z" fill="white"/>
<path d="M83.9718 39.6246C81.5678 39.8165 80.9781 41.8382 79.2127 42.1893C77.8839 42.4535 76.4886 41.5455 75.7161 40.9288C75.7161 40.9288 74.8949 41.3061 74.1674 41.9465C73.9237 42.1615 73.4056 41.6302 73.6011 41.4441C76.0773 39.0885 81.3729 39.4331 81.3729 39.4331C81.3729 39.4331 78.0582 38.063 74.939 39.562C75.0788 39.0052 75.5203 37.5226 77.5896 37.2866C80.3954 36.9653 84.5329 39.5801 83.9718 39.6246V39.6246Z" fill="white"/>
</svg>
